Patient4_TMGait_0pt8_01_left_21_GRF.mot
version=1
nRows=79
nColumns=19
inDegrees=no
endheader
time	F1x	F1y	F1z	M1x	M1y	M1z	F2x	F2y	F2z	M2x	M2y	M2z	EC1x	EC1y	EC1z	EC2x	EC2y	EC2z
22.82	5.5311	-2.4625	-9.028	2.7755	7.0704	-7.56	-39.9121	663.7842	-57.0438	247.6155	84.4139	788.175	-0.0592	0.0182	-0.0073	-0.0462	0.0165	0.9585
22.831	3.5555	-0.79014	-6.1293	1.586	4.6807	-4.0174	-38.4663	661.8148	-57.8049	247.5936	83.3675	783.5516	-0.0592	0.0182	-0.0073	-0.0462	0.0165	0.9585
22.842	1.8901	0.62022	-3.633	0.56801	2.6307	-1.0285	-36.6172	660.8308	-58.2606	248.0181	81.9391	778.9998	-0.0592	0.0182	-0.0073	-0.0462	0.0165	0.9585
22.853	0.60918	1.713	-1.7088	-0.22084	1.0504	1.2669	-34.3092	661.4887	-58.3292	249.1363	80.1074	775.2685	-0.0592	0.0182	-0.0073	-0.0462	0.0165	0.9585
22.864	-0.2817	2.4845	-0.35328	-0.77995	-0.062468	2.8545	-31.4346	664.4898	-57.975	251.2339	77.8142	773.1795	-0.0592	0.0182	-0.0073	-0.0462	0.0165	0.9585
22.875	-0.86297	2.9984	0.49662	-1.1458	-0.766	3.8655	-27.8255	670.6106	-57.2028	254.6262	74.9825	773.6358	-0.0592	0.0182	-0.0073	-0.0462	0.0165	0.9585
22.886	-1.2089	3.3011	0.97401	-1.3566	-1.1735	4.4116	-23.3213	680.6307	-56.0576	259.6239	71.5593	777.5459	-0.0592	0.0182	-0.0073	-0.0462	0.0165	0.9585
22.897	-1.4153	3.4513	1.1776	-1.4524	-1.3748	4.637	-17.8604	695.263	-54.6404	266.4839	67.5824	785.7798	-0.0592	0.0182	-0.0073	-0.0462	0.0165	0.9585
22.908	-1.5542	3.4463	1.2335	-1.45	-1.4814	4.586	-11.5294	714.7895	-53.1336	275.2691	63.2315	798.7746	-0.0592	0.0182	-0.0073	-0.0462	0.0165	0.9585
22.919	-1.6941	3.2678	1.2061	-1.358	-1.5545	4.2798	-4.6241	738.7274	-51.7881	285.7174	58.8364	816.2	-0.0592	0.0182	-0.0073	-0.0462	0.0165	0.9585
22.93	-1.8646	2.8361	1.17	-1.1621	-1.6582	3.6565	2.4609	765.5892	-50.9022	297.1596	54.8198	836.6795	-0.0592	0.0182	-0.0073	-0.0462	0.0165	0.9585
22.941	-2.0799	2.0648	1.1565	-0.83995	-1.8175	2.6235	9.268	792.9774	-50.7505	308.574	51.6004	857.894	-0.0592	0.0182	-0.0073	-0.0462	0.0165	0.9585
22.952	-2.3119	0.8529	1.1866	-0.35835	-2.0366	1.0589	15.4515	818.107	-51.5098	318.8114	49.4702	877.0851	-0.0592	0.0182	-0.0073	-0.0462	0.0165	0.9585
22.963	-2.5003	-0.8707	1.2599	0.30888	-2.2818	-1.1415	20.7265	838.47	-53.1128	326.866	48.4618	891.7614	-0.0592	0.0182	-0.0073	-0.0462	0.0165	0.9585
22.974	-2.5438	-3.1104	1.3427	1.1618	-2.4661	-3.9953	24.9686	852.2265	-55.3262	332.0352	48.3987	900.0641	-0.0592	0.0182	-0.0073	-0.0462	0.0165	0.9585
22.985	-2.2818	-5.7332	1.3852	2.1468	-2.4569	-7.3444	28.1342	858.467	-57.8082	334.0122	48.9728	901.0944	-0.0592	0.0182	-0.0073	-0.0462	0.0165	0.9585
22.996	-1.5094	-8.3631	1.2848	3.1224	-2.0505	-10.7165	30.2977	857.2083	-60.2119	332.8728	49.8411	894.848	-0.0592	0.0182	-0.0073	-0.0462	0.0165	0.9585
23.007	0.036583	-10.3214	0.92339	3.8309	-0.99741	-13.2454	31.6	849.1687	-62.3128	328.9725	50.7565	882.0142	-0.0592	0.0182	-0.0073	-0.0462	0.0165	0.9585
23.018	2.6298	-10.4847	0.14199	3.8485	1.0062	-13.4838	32.2968	835.4404	-63.9524	322.8155	51.492	863.6259	-0.0592	0.0182	-0.0073	-0.0462	0.0165	0.9585
23.029	6.5105	-7.2715	-1.1998	2.5785	4.2362	-9.4012	32.7092	817.2455	-65.0608	314.9464	51.8755	840.8525	-0.0592	0.0182	-0.0073	-0.0462	0.0165	0.9585
23.04	11.7595	1.3911	-3.2469	-0.75534	8.8966	1.6934	33.2227	795.6431	-65.5889	305.8365	51.7248	814.7074	-0.0592	0.0182	-0.0073	-0.0462	0.0165	0.9585
23.051	18.1894	17.8924	-6.0412	-7.0468	14.9595	22.8766	34.177	771.3307	-65.5097	295.7958	50.8836	785.8762	-0.0592	0.0182	-0.0073	-0.0462	0.0165	0.9585
23.062	25.1001	44.6369	-9.5089	-17.187	22.0375	57.2556	35.8172	744.4929	-64.7737	284.9222	49.2051	754.5653	-0.0592	0.0182	-0.0073	-0.0462	0.0165	0.9585
23.073	31.1099	83.3857	-13.2884	-31.8161	29.119	107.0902	38.22	714.8262	-63.268	273.1145	46.5431	720.5538	-0.0592	0.0182	-0.0073	-0.0462	0.0165	0.9585
23.084	33.9523	134.4324	-16.6609	-51.0146	34.4334	172.7831	41.3109	681.6537	-60.8518	260.1203	42.7893	683.2846	-0.0592	0.0182	-0.0073	-0.0462	0.0165	0.9585
23.095	31.4012	196.2864	-18.6344	-74.1728	35.917	252.4525	44.827	644.1137	-57.3536	245.6118	37.8848	642.043	-0.0592	0.0182	-0.0073	-0.0462	0.0165	0.9585
23.106	22.6508	265.7363	-18.2377	-100.0021	32.0126	341.9897	48.3454	601.4085	-52.6646	229.2743	31.9026	596.1952	-0.0592	0.0182	-0.0073	-0.0462	0.0165	0.9585
23.117	9.6519	337.7192	-14.2613	-126.4903	21.9552	434.7501	51.3145	553.0327	-46.7738	210.8943	25.0586	545.3934	-0.0592	0.0182	-0.0073	-0.0462	0.0165	0.9585
23.128	-4.6228	406.5212	-6.1522	-151.4614	6.3025	522.9737	53.1707	498.9452	-39.8785	190.4273	17.7705	489.704	-0.0592	0.0182	-0.0073	-0.0462	0.0165	0.9585
23.139	-18.2183	469.0085	4.8824	-173.7561	-12.6587	602.2592	53.398	439.8153	-32.3333	168.0855	10.5688	429.8426	-0.0592	0.0182	-0.0073	-0.0462	0.0165	0.9585
23.15	-29.921	524.7084	17.2473	-193.2676	-32.421	671.7699	51.6531	377.0739	-24.6265	144.3666	4.025	367.2083	-0.0592	0.0182	-0.0073	-0.0462	0.0165	0.9585
23.161	-39.2279	574.4912	29.4252	-210.4131	-50.8704	732.6778	47.8803	312.8358	-17.3198	120.0325	-1.3425	303.7948	-0.0592	0.0182	-0.0073	-0.0462	0.0165	0.9585
23.172	-46.162	619.3996	40.2015	-225.6788	-66.5196	786.4122	42.2886	249.7188	-10.8737	96.052	-5.2207	242.0254	-0.0592	0.0182	-0.0073	-0.0462	0.0165	0.9585
23.183	-51.1104	660.166	48.9893	-239.3977	-78.7823	834.0639	35.4369	190.5249	-5.656	73.4834	-7.4984	184.4579	-0.0592	0.0182	-0.0073	-0.0462	0.0165	0.9585
23.194	-54.2842	696.9636	55.5805	-251.6768	-87.5458	875.9458	28.0534	137.821	-1.8145	53.3151	-8.3286	133.4442	-0.0592	0.0182	-0.0073	-0.0462	0.0165	0.9585
23.205	-55.9514	729.6315	60.2767	-262.4554	-93.307	911.9853	20.9447	93.4184	0.66499	36.2622	-8.0218	90.5921	-0.0592	0.0182	-0.0073	-0.0462	0.0165	0.9585
23.216	-56.215	757.7039	63.5292	-271.5524	-96.7062	941.7333	14.6221	58.1439	1.9812	22.6691	-6.9462	56.6136	-0.0592	0.0182	-0.0073	-0.0462	0.0165	0.9585
23.227	-55.2486	780.4878	65.7774	-278.6975	-98.3807	964.5084	9.3581	31.8842	2.4232	12.5208	-5.4509	31.3179	-0.0592	0.0182	-0.0073	-0.0462	0.0165	0.9585
23.238	-53.2902	797.1549	67.4594	-283.5793	-98.9586	979.4631	5.2039	13.8524	2.2646	5.5286	-3.8021	13.9627	-0.0592	0.0182	-0.0073	-0.0462	0.0165	0.9585
23.249	-50.5796	807.1686	68.8058	-286.003	-98.8351	986.1172	2.2151	2.6962	1.7837	1.188	-2.27	3.2344	-0.0592	0.0182	-0.0073	-0.0462	0.0165	0.9585
23.26	-47.3027	810.5768	69.9307	-285.9978	-98.227	984.6774	0.25036	-3.1839	1.2048	-1.1135	-1.0174	-2.3912	-0.0592	0.0182	-0.0073	-0.0462	0.0165	0.9585
23.271	-43.5843	808.0094	70.6695	-283.8263	-97.0249	976.0231	-0.86385	-5.4125	0.65677	-1.998	-0.099057	-4.5097	-0.0592	0.0182	-0.0073	-0.0462	0.0165	0.9585
23.282	-39.5298	800.5161	70.8992	-279.8974	-95.143	961.5166	-1.3975	-5.3425	0.19456	-1.9933	0.52539	-4.405	-0.0592	0.0182	-0.0073	-0.0462	0.0165	0.9585
23.293	-35.2075	789.2772	70.6206	-274.6616	-92.6155	942.6343	-1.529	-4.0484	-0.1451	-1.5125	0.88843	-3.1184	-0.0592	0.0182	-0.0073	-0.0462	0.0165	0.9585
23.304	-30.6897	775.4853	69.9749	-268.5534	-89.6382	920.8648	-1.4485	-2.2654	-0.37556	-0.84309	1.0669	-1.3408	-0.0592	0.0182	-0.0073	-0.0462	0.0165	0.9585
23.315	-26.0793	760.1784	69.2065	-261.9489	-86.5256	897.4827	-1.2522	-0.46866	-0.50788	-0.16631	1.1113	0.44734	-0.0592	0.0182	-0.0073	-0.0462	0.0165	0.9585
23.326	-21.5253	744.3787	68.4519	-255.2144	-83.4896	873.7198	-1.0302	1.0875	-0.56818	0.41933	1.0778	2.0029	-0.0592	0.0182	-0.0073	-0.0462	0.0165	0.9585
23.337	-17.1291	729.0709	67.8032	-248.7074	-80.6661	850.7231	-0.8209	2.2931	-0.58518	0.87267	1.0055	3.2168	-0.0592	0.0182	-0.0073	-0.0462	0.0165	0.9585
23.348	-13.0163	715.2198	67.2319	-242.7839	-78.0605	829.5868	-0.65185	3.1475	-0.57373	1.1935	0.91543	4.0885	-0.0592	0.0182	-0.0073	-0.0462	0.0165	0.9585
23.359	-9.2009	703.6816	66.6909	-237.7606	-75.6243	811.2389	-0.53088	3.6903	-0.54743	1.3994	0.8248	4.6486	-0.0592	0.0182	-0.0073	-0.0462	0.0165	0.9585
23.37	-5.7176	695.0814	66.1759	-233.8639	-73.3509	796.345	-0.44684	3.9817	-0.51319	1.5166	0.74433	4.941	-0.0592	0.0182	-0.0073	-0.0462	0.0165	0.9585
23.381	-2.5359	689.739	65.6689	-231.2094	-71.2055	785.182	-0.40803	4.1013	-0.48375	1.5752	0.69264	5.0518	-0.0592	0.0182	-0.0073	-0.0462	0.0165	0.9585
23.392	0.37142	687.6606	65.2132	-229.7971	-69.2158	777.7156	-0.3802	4.1057	-0.46303	1.598	0.66476	5.023	-0.0592	0.0182	-0.0073	-0.0462	0.0165	0.9585
23.403	3.087	688.5585	64.8097	-229.5288	-67.3544	773.5451	-0.3815	4.0675	-0.45577	1.6068	0.67034	4.9417	-0.0592	0.0182	-0.0073	-0.0462	0.0165	0.9585
23.414	5.716	691.9121	64.4809	-230.2246	-65.6054	772.0334	-0.38084	4.021	-0.45417	1.6129	0.69276	4.8427	-0.0592	0.0182	-0.0073	-0.0462	0.0165	0.9585
23.425	8.3954	696.997	64.2353	-231.6388	-63.9297	772.2877	-0.41334	4.0049	-0.46711	1.6247	0.74256	4.8047	-0.0592	0.0182	-0.0073	-0.0462	0.0165	0.9585
23.436	11.2524	702.9828	64.0534	-233.4928	-62.2685	773.3226	-0.44077	3.9961	-0.4936	1.6355	0.80428	4.7828	-0.0592	0.0182	-0.0073	-0.0462	0.0165	0.9585
23.447	14.4247	708.9985	63.9363	-235.4985	-60.5792	774.1394	-0.50221	3.9739	-0.54073	1.6329	0.89172	4.7607	-0.0592	0.0182	-0.0073	-0.0462	0.0165	0.9585
23.458	18.0061	714.3029	63.8321	-237.4092	-58.7811	773.8932	-0.55846	3.8485	-0.60762	1.5835	0.99522	4.6029	-0.0592	0.0182	-0.0073	-0.0462	0.0165	0.9585
23.469	22.0882	718.3925	63.7337	-239.0529	-56.8354	772.0328	-0.64631	3.5478	-0.68957	1.4527	1.1204	4.2276	-0.0592	0.0182	-0.0073	-0.0462	0.0165	0.9585
23.48	26.7182	721.1268	63.6185	-240.3734	-54.7037	768.4296	-0.72463	2.934	-0.78256	1.1852	1.2544	3.4401	-0.0592	0.0182	-0.0073	-0.0462	0.0165	0.9585
23.491	31.9008	722.7302	63.5275	-241.4298	-52.4194	763.3494	-0.80756	1.8816	-0.87867	0.72698	1.3904	2.0885	-0.0592	0.0182	-0.0073	-0.0462	0.0165	0.9585
23.502	37.5936	723.7788	63.4977	-242.389	-50.0333	757.468	-0.8433	0.24493	-0.976	0.022661	1.5042	-0.034649	-0.0592	0.0182	-0.0073	-0.0462	0.0165	0.9585
23.513	43.6823	725.0693	63.5986	-243.4782	-47.6516	751.7129	-0.8196	-2.034	-1.0392	-0.94932	1.5436	-3.0009	-0.0592	0.0182	-0.0073	-0.0462	0.0165	0.9585
23.524	49.985	727.4329	63.9254	-244.9195	-45.42	747.0977	-0.67187	-4.923	-1.0373	-2.1661	1.4417	-6.7832	-0.0592	0.0182	-0.0073	-0.0462	0.0165	0.9585
23.535	56.2834	731.4167	64.5793	-246.8283	-43.5003	744.3574	-0.37007	-8.1585	-0.90287	-3.5108	1.1007	-11.0288	-0.0592	0.0182	-0.0073	-0.0462	0.0165	0.9585
23.546	62.2551	737.0572	65.6543	-249.1427	-42.0819	743.7215	0.15569	-11.1907	-0.55638	-4.742	0.39285	-15.0123	-0.0592	0.0182	-0.0073	-0.0462	0.0165	0.9585
23.557	67.5752	743.7969	67.1672	-251.6067	-41.2912	744.8018	0.9237	-13.0145	0.091196	-5.4336	-0.81166	-17.4052	-0.0592	0.0182	-0.0073	-0.0462	0.0165	0.9585
23.568	71.8789	750.5792	69.0607	-253.8102	-41.1993	746.6865	1.9471	-12.098	1.142	-4.9405	-2.6443	-16.2122	-0.0592	0.0182	-0.0073	-0.0462	0.0165	0.9585
23.579	74.933	756.0156	71.157	-255.2625	-41.7305	748.0658	3.1695	-6.321	2.6571	-2.3756	-5.1511	-8.6533	-0.0592	0.0182	-0.0073	-0.0462	0.0165	0.9585
23.59	76.6425	758.7179	73.1909	-255.5097	-42.6805	747.5868	4.4551	6.9853	4.65	3.3693	-8.2667	8.7866	-0.0592	0.0182	-0.0073	-0.0462	0.0165	0.9585
23.601	77.1309	757.4849	74.8174	-254.2049	-43.6997	743.9893	5.5595	30.8001	7.0105	13.5194	-11.7076	40.039	-0.0592	0.0182	-0.0073	-0.0462	0.0165	0.9585
23.612	76.6827	751.3824	75.6828	-251.1243	-44.376	736.2317	6.0374	67.9183	9.4268	29.2043	-14.8445	88.7906	-0.0592	0.0182	-0.0073	-0.0462	0.0165	0.9585
23.623	75.6798	739.5805	75.4622	-246.1118	-44.288	723.3162	5.1553	120.1374	11.3235	51.1124	-16.581	157.3967	-0.0592	0.0182	-0.0073	-0.0462	0.0165	0.9585
23.634	74.4459	721.2087	73.8708	-239.0045	-43.0604	704.2277	1.6586	187.0477	11.8927	78.9767	-15.3163	245.3323	-0.0592	0.0182	-0.0073	-0.0462	0.0165	0.9585
23.645	73.1046	695.1409	70.693	-229.5414	-40.4487	677.7486	-5.8805	264.3992	10.0966	110.9124	-9.1345	347.0028	-0.0592	0.0182	-0.0073	-0.0462	0.0165	0.9585
23.656	71.4473	660.0093	65.8449	-217.344	-36.4426	642.5251	-17.7009	343.6558	4.8325	143.2988	3.2628	451.1635	-0.0592	0.0182	-0.0073	-0.0462	0.0165	0.9585
23.667	68.9995	614.6731	59.4529	-202.0597	-31.3239	597.4984	-31.8473	416.0774	-4.057	172.5481	21.0353	546.0906	-0.0592	0.0182	-0.0073	-0.0462	0.0165	0.9585
23.678	65.2093	559.0538	51.8301	-183.6326	-25.5653	542.6767	-46.3105	478.3458	-15.1465	197.2763	41.5506	627.1739	-0.0592	0.0182	-0.0073	-0.0462	0.0165	0.9585
